Coordinates
version=1
nRows=4
nColumns=107
inDegrees=yes

Units are S.I. units (second, meters, Newtons, ...)
If the header above contains a line with 'inDegrees', this indicates whether rotational values are in degrees (yes) or radians (no).

endheader
time	sternoclavicular_r2	sternoclavicular_r3	unrotscap_r3	unrotscap_r2	acromioclavicular_r2	acromioclavicular_r3	acromioclavicular_r1	unrothum_r1	unrothum_r3	unrothum_r2	elv_angle	shoulder_elv	shoulder1_r2	shoulder_rot	elbow_flexion	pro_sup	deviation	flexion	proximal_distal_r1	proximal_distal_r3	cmc_flexion	cmc_abduction	mp_flexion	ip_flexion	mcp2_flexion	mcp2_abduction	pm2_flexion	md2_flexion	mcp3_flexion	mcp3_abduction	pm3_flexion	md3_flexion	mcp4_flexion	mcp4_abduction	pm4_flexion	md4_flexion	mcp5_flexion	mcp5_abduction	pm5_flexion	md5_flexion	bicpt_tx	bicpt_ty	bicpt_tz	bicpt2_tx	bicpt2_ty	bicpt2_tz	ptpt_tx	ptpt_ty	ptpt_tz	FCUpt_tx	FCUpt_ty	FCUpt_tz	EDCpt_tx	EDCpt_ty	EDCpt_tz	APLpt_tx	APLpt_ty	APLpt_tz	FPLpt_tx	FPLpt_ty	FPLpt_tz	FPLpt2_tx	FPLpt2_ty	FPLpt2_tz	PEC1pt2_tx	PEC1pt2_ty	PEC1pt2_tz	PEC1pt3_tx	PEC1pt3_ty	PEC1pt3_tz	PEC2pt2_tx	PEC2pt2_ty	PEC2pt2_tz	PEC2pt3_tx	PEC2pt3_ty	PEC2pt3_tz	PEC3pt2_tx	PEC3pt2_ty	PEC3pt2_tz	PEC3pt3_tx	PEC3pt3_ty	PEC3pt3_tz	DELT2pt2a_tx	DELT2pt2a_ty	DELT2pt2a_tz	DELT2pt2_tx	DELT2pt2_ty	DELT2pt2_tz	LAT1pt2_tx	LAT1pt2_ty	LAT1pt2_tz	LAT1pt3_tx	LAT1pt3_ty	LAT1pt3_tz	LAT2pt2_tx	LAT2pt2_ty	LAT2pt2_tz	LAT2pt3_tx	LAT2pt3_ty	LAT2pt3_tz	LAT3pt2_tx	LAT3pt2_ty	LAT3pt2_tz	LAT3pt3_tx	LAT3pt3_ty	LAT3pt3_tz
      0.00000000	     -0.31810715	      0.13473517	     -0.13473517	      0.31810715	     -0.06441023	      0.52054080	      0.23397951	     -0.23397951	     -0.52054080	      0.06441023	    100.40846431	     75.31469489	     -1.75245830	    -29.27965811	     28.66320860	     38.30713099	      0.12101362	     -1.00991077	      0.15224606	     -0.50495539	     -2.87123730	     -2.81236049	    -35.66907695	    -53.16376401	     77.75026211	     11.75813927	     86.63403465	     88.77590677	     70.49708323	      4.35476547	     80.73609420	     20.11012792	     69.21528872	     -8.68230366	     92.55985437	     83.94607656	     73.40209853	    -13.21411790	     82.76456828	      5.42755890	      0.00084809	     -0.03088524	     -0.00482917	      0.01656802	     -0.01798650	     -0.00764877	      0.00471954	     -0.06673023	     -0.00313585	      0.00761024	     -0.18352988	     -0.00037334	     -0.00459684	      0.00131181	      0.00015781	      0.00017919	      0.00007168	      0.00035839	      0.00022937	      0.00068810	      0.00038706	     -0.00014980	      0.00007635	      0.00009162	      0.00246865	      0.00866120	      0.00602518	     -0.00807542	      0.01949815	     -0.01849396	      0.00246865	      0.00866120	      0.00602518	      0.00054394	      0.01807554	     -0.00949803	      0.00391554	      0.00481638	      0.01588790	      0.00000000	      0.00758476	      0.00000000	     -0.00707122	     -0.03267824	     -0.00625286	      0.01855523	     -0.00073258	     -0.00715124	     -0.00087867	      0.01472822	     -0.00602518	      0.00242681	      0.02125550	     -0.01757344	     -0.00589966	      0.01276167	     -0.00539756	     -0.01230141	      0.02694595	     -0.03016774	     -0.02309653	      0.01426796	     -0.00723859	     -0.01531400	      0.03113010	     -0.03769922
      0.03333333	     -0.31821167	      0.13477944	     -0.13477944	      0.31821167	     -0.06443139	      0.52071182	      0.23405638	     -0.23405638	     -0.52071182	      0.06443139	    100.40073516	     75.33944032	     -1.75232340	    -29.23289138	     28.61290972	     37.83672085	      0.11638718	     -1.01284285	      0.14686647	     -0.50642143	     -3.24294105	     -2.62497418	    -35.26791809	    -52.77477504	     77.76952492	     11.71659084	     86.34366999	     88.24148690	     74.00954439	      5.12437719	     81.12503227	     19.98871152	     68.49207595	     -8.50669726	     92.69949441	     84.34303649	     73.21967782	    -13.16680117	     83.65767651	      5.62232817	      0.00084643	     -0.03087948	     -0.00482824	      0.01656501	     -0.01797284	     -0.00769768	      0.00475429	     -0.06670775	     -0.00309795	      0.00756316	     -0.18353940	     -0.00036930	     -0.00454040	      0.00129297	      0.00016068	      0.00017718	      0.00007087	      0.00035436	      0.00022679	      0.00068038	      0.00038271	     -0.00018027	      0.00008692	      0.00010430	      0.00246946	      0.00866404	      0.00602716	     -0.00807807	      0.01950456	     -0.01850003	      0.00246946	      0.00866404	      0.00602716	      0.00054412	      0.01808148	     -0.00950115	      0.00391649	      0.00481796	      0.01589024	      0.00000000	      0.00758977	      0.00000000	     -0.00707354	     -0.03268897	     -0.00625703	      0.01853403	     -0.00073100	     -0.00712890	     -0.00087896	      0.01473306	     -0.00602716	      0.00242761	      0.02126248	     -0.01757922	     -0.00590159	      0.01276586	     -0.00539933	     -0.01230545	      0.02695480	     -0.03017766	     -0.02310411	      0.01427265	     -0.00724096	     -0.01531903	      0.03114033	     -0.03771161
      0.06666667	     -0.32167422	      0.13624602	     -0.13624602	      0.32167422	     -0.06513249	      0.52637784	      0.23660322	     -0.23660322	     -0.52637784	      0.06513249	     99.64993948	     76.15923069	     -1.73921954	    -24.80849207	     28.06282058	     32.66352029	      0.11941229	     -1.05022340	      0.15038797	     -0.52511170	     -3.62458812	     -2.16570645	    -35.30704611	    -51.00151480	     78.07425740	     11.72567105	     86.46176562	     82.05552836	     78.68468469	      4.43846960	     82.54223916	     26.65841078	     68.31808706	     -8.44284062	     94.15677700	     84.68438856	     72.65226798	    -13.23079017	     87.84613872	      5.57310287	      0.00082823	     -0.03081643	     -0.00481808	      0.01649914	     -0.01782340	     -0.00821548	      0.00513653	     -0.06646059	     -0.00268122	      0.00704991	     -0.18364004	     -0.00031407	     -0.00391961	      0.00109011	      0.00018451	      0.00015084	      0.00006034	      0.00030168	      0.00019308	      0.00057923	      0.00032582	     -0.00021427	      0.00009791	      0.00011750	      0.00249633	      0.00875832	      0.00609274	     -0.00816597	      0.01971680	     -0.01870134	      0.00249633	      0.00875832	      0.00609274	      0.00055004	      0.01827823	     -0.00960453	      0.00394765	      0.00487039	      0.01596693	      0.00000000	      0.00775700	      0.00000000	     -0.00715051	     -0.03304467	     -0.00639588	      0.01639644	     -0.00058401	     -0.00514323	     -0.00088853	      0.01489337	     -0.00609274	      0.00245402	      0.02149385	     -0.01777050	     -0.00596581	      0.01290477	     -0.00545808	     -0.01243935	      0.02724810	     -0.03050603	     -0.02335552	      0.01442796	     -0.00731975	     -0.01548572	      0.03147918	     -0.03812196
      0.10000000	     -0.32267627	      0.13667044	     -0.13667044	      0.32267627	     -0.06533538	      0.52801757	      0.23734027	     -0.23734027	     -0.52801757	      0.06533538	     99.43374861	     76.39647628	     -1.73544630	    -23.63725720	     27.97670418	     31.67521031	      0.12424474	     -1.04741763	      0.15598250	     -0.52370881	     -3.57835996	     -2.05999314	    -35.39963104	    -50.44511062	     78.22234331	     11.79381577	     86.39054648	     80.92331568	     80.88732961	      3.36357204	     84.04513581	     37.32852465	     68.60784366	     -8.05834371	     95.40109061	     84.57030370	     72.46630086	    -13.22245703	     89.03952934	      5.62685255	      0.00082538	     -0.03080656	     -0.00481649	      0.01647958	     -0.01780001	     -0.00831013	      0.00520956	     -0.06641337	     -0.00260161	      0.00695280	     -0.18365840	     -0.00030123	     -0.00380102	      0.00105229	      0.00018740	      0.00015290	      0.00006116	      0.00030581	      0.00019572	      0.00058715	      0.00033027	     -0.00020964	      0.00009656	      0.00011587	      0.00250411	      0.00878560	      0.00611172	     -0.00819141	      0.01977822	     -0.01875960	      0.00250411	      0.00878560	      0.00611172	      0.00055175	      0.01833517	     -0.00963445	      0.00395662	      0.00488556	      0.01598882	      0.00000000	      0.00780574	      0.00000000	     -0.00717279	     -0.03314761	     -0.00643634	      0.01578667	     -0.00054619	     -0.00466241	     -0.00089129	      0.01493977	     -0.00611172	      0.00246167	      0.02156080	     -0.01782586	     -0.00598440	      0.01294497	     -0.00547509	     -0.01247810	      0.02733298	     -0.03060106	     -0.02342827	      0.01447290	     -0.00734256	     -0.01553396	      0.03157724	     -0.03824071
